<svg width="777" height="657" viewBox="0 0 777 657" fill="none" xmlns="http://www.w3.org/2000/svg">
<path d="M731.548 220.731C743.184 221.756 754.057 223.404 764.608 217.094C772.948 212.09 780.484 202.805 773.209 193.52C763.382 180.959 742.44 190.947 733.015 199.408C727.227 204.573 719.891 212.049 715.41 216.652C718.846 210.623 721.881 205.779 723.951 202.584V202.483C724.936 200.956 725.699 199.81 726.162 199.167C730.269 195.618 734.65 192.399 739.265 189.541C748.831 182.848 758.197 177.121 762.236 165.424C765.412 156.24 765.211 144.282 753.675 141.83C738.059 138.534 728.453 159.656 726.684 172.177C725.418 180.979 724.514 193.46 724.132 199.268C722.122 202.363 717.56 209.316 712.496 218.44C711.832 213.215 713.018 204.071 713.179 201.699C713.983 190.043 715.41 179.15 708.898 168.72C703.733 160.48 694.287 153.124 685.163 160.581C672.783 170.629 683.154 191.39 691.816 200.634C698.066 207.347 707.552 216.169 711.651 219.968C706.478 229.359 701.958 239.095 698.126 249.109C697.905 249.692 697.684 250.315 697.483 250.917C695.473 246.054 694.388 236.849 693.966 234.398C691.956 222.902 690.549 211.989 681.666 203.488C674.653 196.755 663.7 191.972 656.666 201.478C647.16 214.28 662.353 231.825 672.984 238.658C680.682 243.602 692.037 249.832 696.96 252.505C695.292 257.61 693.785 263.699 692.097 270.593C690.409 277.486 688.479 285.163 686.068 293.262C682.872 291.514 681.204 276.963 680.641 273.909C678.632 262.413 677.245 251.5 668.362 242.999C661.348 236.267 650.375 231.483 643.361 240.989C633.835 253.791 649.049 271.336 659.68 278.169C669.608 284.56 685.626 293.061 686.068 293.303L685.626 293.644C685.776 293.544 685.938 293.463 686.108 293.403C683.32 302.853 679.868 312.094 675.778 321.057C672.301 318.183 667.739 306.989 666.614 304.456C661.569 293.926 657.449 283.736 646.657 277.868C638.116 273.205 626.278 271.457 621.978 282.45C616.17 297.302 635.423 310.244 647.481 314.043C657.047 317.057 671.236 320.414 675.617 321.419C670.773 331.943 664.745 341.882 657.65 351.042C654.254 347.565 650.114 337.315 648.968 334.964C643.843 324.554 639.824 314.284 628.972 308.476C620.43 303.833 608.613 302.085 604.312 313.058C598.484 327.85 617.717 340.792 629.775 344.651C638.779 347.505 651.882 350.68 657.067 351.846C647.173 364.327 635.25 375.054 621.797 383.579L622.641 384.885C636.169 376.326 648.166 365.559 658.133 353.031C662.152 353.433 671.738 362.678 673.989 364.567C682.892 372.124 690.811 379.741 703.07 380.645C712.777 381.389 724.293 378.133 723.71 366.356C722.946 350.419 700.075 346.5 687.535 347.967C677.084 349.173 661.851 352.147 658.273 352.851L658.776 352.187L659.258 352.308L658.836 352.127C666.048 342.85 672.158 332.768 677.044 322.082C681.465 322.283 691.836 328.955 694.287 330.322C704.497 336.009 713.742 341.938 725.961 340.491C735.607 339.345 746.279 333.939 743.445 322.403C739.587 306.928 716.394 307.511 704.356 311.37C694.89 314.405 681.526 319.811 677.245 321.559C681.433 312.345 684.953 302.841 687.776 293.122C692.72 292.88 702.929 296.176 705.441 296.82C716.776 299.714 727.227 303.07 738.662 298.548C747.706 294.971 756.629 287.012 750.962 276.682C743.284 262.614 720.997 269.186 710.345 275.999C702.869 280.782 692.881 288.178 688.238 291.695C690.389 284.339 692.117 277.345 693.685 271.015C695.333 264.302 696.82 258.333 698.428 253.329L699.473 253.892C699.102 253.653 698.787 253.338 698.548 252.967C698.548 252.967 698.548 252.807 698.548 252.726C702.929 252.083 714.365 256.746 717.038 257.63C728.111 261.348 738.3 265.448 750.017 261.77C759.302 258.876 768.788 251.581 763.884 240.869C757.252 226.359 734.542 231.202 723.428 237.231C714.726 241.954 702.628 249.712 698.709 252.244C698.99 251.4 699.272 250.576 699.573 249.792C703.338 239.962 707.77 230.4 712.837 221.174L713.681 221.937C713.377 221.633 713.15 221.261 713.018 220.852L713.561 219.847C718.505 218.923 728.975 220.51 731.548 220.731Z" fill="#6CDCF2"/>
<path opacity="0.5" d="M731.548 220.731C743.184 221.756 754.057 223.404 764.608 217.094C772.948 212.09 780.484 202.805 773.209 193.52C763.382 180.959 742.44 190.947 733.015 199.408C727.227 204.573 719.891 212.049 715.41 216.652C718.846 210.623 721.881 205.779 723.951 202.584V202.483C724.936 200.956 725.699 199.81 726.162 199.167C730.269 195.618 734.65 192.399 739.265 189.541C748.831 182.848 758.197 177.121 762.236 165.424C765.412 156.24 765.211 144.282 753.675 141.83C738.059 138.534 728.453 159.656 726.684 172.177C725.418 180.979 724.514 193.46 724.132 199.268C722.122 202.363 717.56 209.316 712.496 218.44C711.832 213.215 713.018 204.071 713.179 201.699C713.983 190.043 715.41 179.15 708.898 168.72C703.733 160.48 694.287 153.124 685.163 160.581C672.783 170.629 683.154 191.39 691.816 200.634C698.066 207.347 707.552 216.169 711.651 219.968C706.478 229.359 701.958 239.095 698.126 249.109C697.905 249.692 697.684 250.315 697.483 250.917C695.473 246.054 694.388 236.849 693.966 234.398C691.956 222.902 690.549 211.989 681.666 203.488C674.653 196.755 663.7 191.972 656.666 201.478C647.16 214.28 662.353 231.825 672.984 238.658C680.682 243.602 692.037 249.832 696.96 252.505C695.292 257.61 693.785 263.699 692.097 270.593C690.409 277.486 688.479 285.163 686.068 293.262C682.872 291.514 681.204 276.963 680.641 273.909C678.632 262.413 677.245 251.5 668.362 242.999C661.348 236.267 650.375 231.483 643.361 240.989C633.835 253.791 649.049 271.336 659.68 278.169C669.608 284.56 685.626 293.061 686.068 293.303L685.626 293.644C685.776 293.544 685.938 293.463 686.108 293.403C683.32 302.853 679.868 312.094 675.778 321.057C672.301 318.183 667.739 306.989 666.614 304.456C661.569 293.926 657.449 283.736 646.657 277.868C638.116 273.205 626.278 271.457 621.978 282.45C616.17 297.302 635.423 310.244 647.481 314.043C657.047 317.057 671.236 320.414 675.617 321.419C670.773 331.943 664.745 341.882 657.65 351.042C654.254 347.565 650.114 337.315 648.968 334.964C643.843 324.554 639.824 314.284 628.972 308.476C620.43 303.833 608.613 302.085 604.312 313.058C598.484 327.85 617.717 340.792 629.775 344.651C638.779 347.505 651.882 350.68 657.067 351.846C647.173 364.327 635.25 375.054 621.797 383.579L622.641 384.885C636.169 376.326 648.166 365.559 658.133 353.031C662.152 353.433 671.738 362.678 673.989 364.567C682.892 372.124 690.811 379.741 703.07 380.645C712.777 381.389 724.293 378.133 723.71 366.356C722.946 350.419 700.075 346.5 687.535 347.967C677.084 349.173 661.851 352.147 658.273 352.851L658.776 352.187L659.258 352.308L658.836 352.127C666.048 342.85 672.158 332.768 677.044 322.082C681.465 322.283 691.836 328.955 694.287 330.322C704.497 336.009 713.742 341.938 725.961 340.491C735.607 339.345 746.279 333.939 743.445 322.403C739.587 306.928 716.394 307.511 704.356 311.37C694.89 314.405 681.526 319.811 677.245 321.559C681.433 312.345 684.953 302.841 687.776 293.122C692.72 292.88 702.929 296.176 705.441 296.82C716.776 299.714 727.227 303.07 738.662 298.548C747.706 294.971 756.629 287.012 750.962 276.682C743.284 262.614 720.997 269.186 710.345 275.999C702.869 280.782 692.881 288.178 688.238 291.695C690.389 284.339 692.117 277.345 693.685 271.015C695.333 264.302 696.82 258.333 698.428 253.329L699.473 253.892C699.102 253.653 698.787 253.338 698.548 252.967C698.548 252.967 698.548 252.807 698.548 252.726C702.929 252.083 714.365 256.746 717.038 257.63C728.111 261.348 738.3 265.448 750.017 261.77C759.302 258.876 768.788 251.581 763.884 240.869C757.252 226.359 734.542 231.202 723.428 237.231C714.726 241.954 702.628 249.712 698.709 252.244C698.99 251.4 699.272 250.576 699.573 249.792C703.338 239.962 707.77 230.4 712.837 221.174L713.681 221.937C713.377 221.633 713.15 221.261 713.018 220.852L713.561 219.847C718.505 218.923 728.975 220.51 731.548 220.731Z" fill="#07B7DE"/>
<path d="M561.967 320.353C571.554 313.681 580.939 307.994 584.999 296.377C588.214 287.213 588.053 275.235 576.518 272.763C560.922 269.407 551.255 290.509 549.427 303.03C548.321 310.707 547.417 321.117 546.975 327.548C545.749 320.735 544.965 315.048 544.523 311.31C544.302 309.501 544.161 308.134 544.101 307.29C544.988 301.938 546.291 296.663 548 291.514C551.054 280.239 554.592 269.829 550.23 258.333C546.794 249.249 538.976 240.246 528.546 245.712C514.478 253.168 520.607 275.537 527.259 286.309C531.942 293.865 539.318 304.034 542.654 308.737C543.056 312.455 544.041 320.655 546.01 330.844C542.131 327.247 537.207 319.489 535.801 317.56C528.947 308.094 523.079 298.809 511.383 294.991C502.158 291.956 490.2 292.358 487.949 303.934C484.894 319.59 506.177 328.855 518.718 330.422C527.822 331.568 540.825 332.271 546.332 332.552C548.373 343.081 551.139 353.456 554.612 363.603C554.813 364.206 555.054 364.808 555.275 365.411C550.652 362.939 543.84 356.508 541.991 354.981C533.007 347.485 525.029 339.948 512.769 339.104C503.062 338.441 491.567 341.777 492.23 353.554C493.134 369.491 516.045 373.209 528.606 371.641C537.67 370.516 550.371 368.024 555.858 366.919C557.867 371.903 560.601 377.55 563.696 383.901C566.791 390.252 570.247 397.406 573.583 405.164C570.006 405.887 559.395 395.758 557.003 393.789C548.02 386.292 540.041 378.756 527.782 377.912C518.075 377.249 506.599 380.585 507.263 392.362C508.167 408.299 531.058 412.017 543.618 410.449C555.315 408.982 573.081 405.264 573.583 405.164L573.443 405.706C573.5 405.538 573.574 405.377 573.664 405.224C577.579 414.259 580.85 423.561 583.451 433.059C578.929 433.059 568.298 427.351 565.766 426.185C555.154 421.322 545.467 416.137 533.409 418.548C523.883 420.458 513.674 426.587 517.331 437.862C522.396 452.995 545.467 450.603 557.164 445.901C566.449 442.082 579.492 435.571 583.491 433.541C586.525 444.727 588.265 456.224 588.676 467.807C583.833 467.304 574.086 462.079 571.674 460.974C561.063 456.11 551.376 450.925 539.318 453.337C529.792 455.226 519.582 461.376 523.24 472.65C528.304 487.783 551.376 485.372 563.073 480.568C571.815 476.991 583.913 470.982 588.636 468.51C589.034 484.435 586.745 500.313 581.863 515.477L583.371 515.94C588.267 500.695 590.583 484.739 590.224 468.731C593.6 466.46 606.844 467.425 609.778 467.445C621.455 467.545 632.428 468.309 642.436 461.175C650.355 455.547 657.128 445.68 649.149 437.058C638.337 425.321 618.26 437.058 609.557 446.122C602.322 453.739 592.495 465.777 590.224 468.611C590.224 468.329 590.224 468.068 590.224 467.787L590.666 467.566C590.526 467.629 590.377 467.67 590.224 467.686C589.834 455.989 588.094 444.376 585.039 433.079C588.556 430.406 600.775 428.898 603.548 428.376C615.044 426.185 625.937 424.819 634.378 415.896C641.05 408.821 645.773 397.808 636.267 390.875C623.404 381.449 605.96 396.743 599.187 407.435C593.861 415.815 587.129 428.537 584.898 432.616C582.235 422.863 578.877 413.312 574.85 404.038C578.487 400.682 588.435 396.683 590.787 395.557C601.338 390.513 611.507 386.413 617.395 375.621C622.038 367.079 623.806 355.242 612.833 350.941C597.981 345.113 585.019 364.366 581.22 376.425C578.547 384.886 575.593 396.984 574.267 402.672C571.192 395.638 568.037 389.166 565.183 383.298C562.168 377.088 559.475 371.561 557.506 366.677L558.671 366.436C558.234 366.498 557.788 366.464 557.365 366.336C557.34 366.246 557.307 366.158 557.264 366.075C560.219 362.799 571.976 359.041 574.608 358.036C585.501 353.775 595.952 350.419 602.604 340.089C607.869 331.909 610.482 320.233 599.85 315.148C585.461 308.255 571.132 326.523 566.449 338.26C562.791 347.465 558.41 361.171 557.084 365.632C556.762 364.808 556.461 363.984 556.179 363.201C552.8 353.243 550.114 343.062 548.14 332.733H549.266C548.836 332.691 548.423 332.546 548.06 332.311C548.06 331.949 547.919 331.568 547.839 331.206C550.793 327.307 559.837 321.841 561.967 320.353Z" fill="#6CDCF2"/>
<path opacity="0.5" d="M561.967 320.353C571.554 313.681 580.939 307.994 584.999 296.377C588.214 287.213 588.053 275.235 576.518 272.763C560.922 269.407 551.255 290.509 549.427 303.03C548.321 310.707 547.417 321.117 546.975 327.548C545.749 320.735 544.965 315.048 544.523 311.31C544.302 309.501 544.161 308.134 544.101 307.29C544.988 301.938 546.291 296.663 548 291.514C551.054 280.239 554.592 269.829 550.23 258.333C546.794 249.249 538.976 240.246 528.546 245.712C514.478 253.168 520.607 275.537 527.259 286.309C531.942 293.865 539.318 304.034 542.654 308.737C543.056 312.455 544.041 320.655 546.01 330.844C542.131 327.247 537.207 319.489 535.801 317.56C528.947 308.094 523.079 298.809 511.383 294.991C502.158 291.956 490.2 292.358 487.949 303.934C484.894 319.59 506.177 328.855 518.718 330.422C527.822 331.568 540.825 332.271 546.332 332.552C548.373 343.081 551.139 353.456 554.612 363.603C554.813 364.206 555.054 364.808 555.275 365.411C550.652 362.939 543.84 356.508 541.991 354.981C533.007 347.485 525.029 339.948 512.769 339.104C503.062 338.441 491.567 341.777 492.23 353.554C493.134 369.491 516.045 373.209 528.606 371.641C537.67 370.516 550.371 368.024 555.858 366.919C557.867 371.903 560.601 377.55 563.696 383.901C566.791 390.252 570.247 397.406 573.583 405.164C570.006 405.887 559.395 395.758 557.003 393.789C548.02 386.292 540.041 378.756 527.782 377.912C518.075 377.249 506.599 380.585 507.263 392.362C508.167 408.299 531.058 412.017 543.618 410.449C555.315 408.982 573.081 405.264 573.583 405.164L573.443 405.706C573.5 405.538 573.574 405.377 573.664 405.224C577.579 414.259 580.85 423.561 583.451 433.059C578.929 433.059 568.298 427.351 565.766 426.185C555.154 421.322 545.467 416.137 533.409 418.548C523.883 420.458 513.674 426.587 517.331 437.862C522.396 452.995 545.467 450.603 557.164 445.901C566.449 442.082 579.492 435.571 583.491 433.541C586.525 444.727 588.265 456.224 588.676 467.807C583.833 467.304 574.086 462.079 571.674 460.974C561.063 456.11 551.376 450.925 539.318 453.337C529.792 455.226 519.582 461.376 523.24 472.65C528.304 487.783 551.376 485.372 563.073 480.568C571.815 476.991 583.913 470.982 588.636 468.51C589.034 484.435 586.745 500.313 581.863 515.477L583.371 515.94C588.267 500.695 590.583 484.739 590.224 468.731C593.6 466.46 606.844 467.425 609.778 467.445C621.455 467.545 632.428 468.309 642.436 461.175C650.355 455.547 657.128 445.68 649.149 437.058C638.337 425.321 618.26 437.058 609.557 446.122C602.322 453.739 592.495 465.777 590.224 468.611C590.224 468.329 590.224 468.068 590.224 467.787L590.666 467.566C590.526 467.629 590.377 467.67 590.224 467.686C589.834 455.989 588.094 444.376 585.039 433.079C588.556 430.406 600.775 428.898 603.548 428.376C615.044 426.185 625.937 424.819 634.378 415.896C641.05 408.821 645.773 397.808 636.267 390.875C623.404 381.449 605.96 396.743 599.187 407.435C593.861 415.815 587.129 428.537 584.898 432.616C582.235 422.863 578.877 413.312 574.85 404.038C578.487 400.682 588.435 396.683 590.787 395.557C601.338 390.513 611.507 386.413 617.395 375.621C622.038 367.079 623.806 355.242 612.833 350.941C597.981 345.113 585.019 364.366 581.22 376.425C578.547 384.886 575.593 396.984 574.267 402.672C571.192 395.638 568.037 389.166 565.183 383.298C562.168 377.088 559.475 371.561 557.506 366.677L558.671 366.436C558.234 366.498 557.788 366.464 557.365 366.336C557.34 366.246 557.307 366.158 557.264 366.075C560.219 362.799 571.976 359.041 574.608 358.036C585.501 353.775 595.952 350.419 602.604 340.089C607.869 331.909 610.482 320.233 599.85 315.148C585.461 308.255 571.132 326.523 566.449 338.26C562.791 347.465 558.41 361.171 557.084 365.632C556.762 364.808 556.461 363.984 556.179 363.201C552.8 353.243 550.114 343.062 548.14 332.733H549.266C548.836 332.691 548.423 332.546 548.06 332.311C548.06 331.949 547.919 331.568 547.839 331.206C550.793 327.307 559.837 321.841 561.967 320.353Z" fill="#07B7DE"/>
<path d="M96.7568 239.201C106.805 228.208 116.854 218.481 118.864 202.865C120.311 190.525 116.854 175.674 101.701 175.794C81.3222 175.975 75.1523 204.975 76.3783 221.093C77.1219 230.961 78.9507 244.225 80.1565 252.344C76.7199 244.185 74.1274 237.312 72.5799 232.77C72.5799 232.77 72.5799 232.77 72.5799 232.669C71.7961 230.459 71.2535 228.811 70.9319 227.826C70.0878 221.093 71.2736 210.02 71.3942 207.085C72.0574 192.153 73.5446 178.206 64.9229 165.082C58.0898 154.712 45.8104 145.608 34.355 155.395C18.86 168.64 32.7874 194.806 44.082 206.362C52.1209 214.501 63.9582 225.133 69.5452 230.057C71.0726 234.558 74.5896 244.507 79.8953 256.746C74.0872 253.349 65.8272 245.029 63.4758 243.019C52.3018 233.131 42.3738 223.224 26.7381 221.696C14.3783 220.49 -0.413213 224.329 0.00882858 239.402C0.591648 259.78 29.6924 265.367 45.7903 263.84C57.4266 262.715 73.7656 260.001 80.7996 258.776C86.2817 271.338 92.6275 283.506 99.7915 295.192C100.22 295.875 100.662 296.545 101.118 297.201C94.6466 295.433 84.377 289.303 81.6236 287.896C68.3595 281.083 56.3011 273.828 40.766 276.28C28.4866 278.169 15.1018 285.525 19.2218 300.015C24.7887 319.63 54.3919 317.881 69.6055 312.435C80.5987 308.416 95.7319 301.844 102.263 298.93C106.162 304.597 111.146 310.847 116.774 317.902C122.401 324.956 128.711 332.914 135.042 341.656V341.777C130.761 343.646 114.724 334.02 111.187 332.191C97.9024 325.378 85.844 318.123 70.329 320.574C58.0496 322.464 44.6648 329.819 48.7647 344.309C54.3517 363.924 83.9549 362.176 99.1484 356.729C113.337 351.645 134.439 342.058 135.042 341.777C135.042 342.199 135.042 342.501 135.042 342.501C135.062 342.275 135.109 342.052 135.183 341.837C142.591 352.009 149.266 362.694 155.159 373.812C149.532 375.078 134.68 370.918 131.203 370.174C116.593 367.079 103.067 363.321 88.7179 369.692C77.363 374.716 66.3698 385.348 74.1475 398.25C84.6784 415.695 112.774 406.289 126.018 397.004C136.509 389.669 150.959 377.892 155.401 374.254C162.32 387.354 167.714 401.205 171.478 415.534C165.308 416.257 151.723 412.459 148.407 411.756C133.796 408.641 120.271 404.902 105.921 411.253C94.3653 416.398 83.3721 427.05 91.1698 439.912C101.701 457.376 129.797 447.951 143.041 438.686C152.929 431.772 166.354 420.9 171.559 416.579C176.496 436.311 178.079 456.734 176.241 476.991L178.251 477.172C180.081 456.815 178.499 436.294 173.568 416.458C177.126 412.68 193.927 410.188 197.685 409.404C212.276 406.249 226.143 404.159 236.654 392.462C244.954 383.218 250.722 369.049 238.261 360.447C221.52 348.831 199.735 368.928 191.435 382.795C184.541 394.311 175.679 412.077 173.609 416.237C173.609 415.896 173.428 415.554 173.347 415.212L173.83 414.81C173.674 414.923 173.505 415.018 173.327 415.092C169.53 400.573 164.074 386.54 157.069 373.269C160.706 368.948 175.538 363.643 178.834 362.216C192.54 356.307 205.744 351.544 213.783 338.099C220.134 327.428 222.967 312.395 209.161 306.366C190.47 298.206 172.986 322.162 167.539 337.376C163.259 349.314 158.335 367.059 156.787 372.767C150.697 361.35 143.799 350.383 136.147 339.948C139.765 334.743 151.039 326.986 153.672 324.936C165.409 315.711 176.945 307.752 181.266 292.639C184.682 280.702 183.577 265.448 168.685 263.157C148.588 260.042 137.775 287.675 136.389 303.773C135.404 315.048 135.122 330.945 135.042 338.421C129.254 330.523 123.526 323.328 118.321 316.796C112.815 309.903 107.931 303.753 104.112 298.226L105.479 297.603C104.96 297.8 104.404 297.876 103.851 297.824C103.773 297.739 103.706 297.645 103.65 297.543C106.404 292.619 120.029 284.661 123.024 282.651C135.404 274.311 147.502 267.196 152.908 252.505C157.169 240.829 157.169 225.555 142.498 222.178C122.622 217.596 109.88 244.285 107.328 260.363C105.318 272.864 103.751 291.152 103.309 297.101C102.665 296.156 102.062 295.212 101.5 294.307C94.4672 282.844 88.2291 270.912 82.8295 258.595L84.2765 258.353C83.7272 258.406 83.1731 258.344 82.6486 258.173L82.0658 256.846C84.7588 250.998 94.526 241.633 96.7568 239.201Z" fill="#6CDCF2"/>
<path opacity="0.5" d="M96.7568 239.201C106.805 228.208 116.854 218.481 118.864 202.865C120.311 190.525 116.854 175.674 101.701 175.794C81.3222 175.975 75.1523 204.975 76.3783 221.093C77.1219 230.961 78.9507 244.225 80.1565 252.344C76.7199 244.185 74.1274 237.312 72.5799 232.77C72.5799 232.77 72.5799 232.77 72.5799 232.669C71.7961 230.459 71.2535 228.811 70.9319 227.826C70.0878 221.093 71.2736 210.02 71.3942 207.085C72.0574 192.153 73.5446 178.206 64.9229 165.082C58.0898 154.712 45.8104 145.608 34.355 155.395C18.86 168.64 32.7874 194.806 44.082 206.362C52.1209 214.501 63.9582 225.133 69.5452 230.057C71.0726 234.558 74.5896 244.507 79.8953 256.746C74.0872 253.349 65.8272 245.029 63.4758 243.019C52.3018 233.131 42.3738 223.224 26.7381 221.696C14.3783 220.49 -0.413213 224.329 0.00882858 239.402C0.591648 259.78 29.6924 265.367 45.7903 263.84C57.4266 262.715 73.7656 260.001 80.7996 258.776C86.2817 271.338 92.6275 283.506 99.7915 295.192C100.22 295.875 100.662 296.545 101.118 297.201C94.6466 295.433 84.377 289.303 81.6236 287.896C68.3595 281.083 56.3011 273.828 40.766 276.28C28.4866 278.169 15.1018 285.525 19.2218 300.015C24.7887 319.63 54.3919 317.881 69.6055 312.435C80.5987 308.416 95.7319 301.844 102.263 298.93C106.162 304.597 111.146 310.847 116.774 317.902C122.401 324.956 128.711 332.914 135.042 341.656V341.777C130.761 343.646 114.724 334.02 111.187 332.191C97.9024 325.378 85.844 318.123 70.329 320.574C58.0496 322.464 44.6648 329.819 48.7647 344.309C54.3517 363.924 83.9549 362.176 99.1484 356.729C113.337 351.645 134.439 342.058 135.042 341.777C135.042 342.199 135.042 342.501 135.042 342.501C135.062 342.275 135.109 342.052 135.183 341.837C142.591 352.009 149.266 362.694 155.159 373.812C149.532 375.078 134.68 370.918 131.203 370.174C116.593 367.079 103.067 363.321 88.7179 369.692C77.363 374.716 66.3698 385.348 74.1475 398.25C84.6784 415.695 112.774 406.289 126.018 397.004C136.509 389.669 150.959 377.892 155.401 374.254C162.32 387.354 167.714 401.205 171.478 415.534C165.308 416.257 151.723 412.459 148.407 411.756C133.796 408.641 120.271 404.902 105.921 411.253C94.3653 416.398 83.3721 427.05 91.1698 439.912C101.701 457.376 129.797 447.951 143.041 438.686C152.929 431.772 166.354 420.9 171.559 416.579C176.496 436.311 178.079 456.734 176.241 476.991L178.251 477.172C180.081 456.815 178.499 436.294 173.568 416.458C177.126 412.68 193.927 410.188 197.685 409.404C212.276 406.249 226.143 404.159 236.654 392.462C244.954 383.218 250.722 369.049 238.261 360.447C221.52 348.831 199.735 368.928 191.435 382.795C184.541 394.311 175.679 412.077 173.609 416.237C173.609 415.896 173.428 415.554 173.347 415.212L173.83 414.81C173.674 414.923 173.505 415.018 173.327 415.092C169.53 400.573 164.074 386.54 157.069 373.269C160.706 368.948 175.538 363.643 178.834 362.216C192.54 356.307 205.744 351.544 213.783 338.099C220.134 327.428 222.967 312.395 209.161 306.366C190.47 298.206 172.986 322.162 167.539 337.376C163.259 349.314 158.335 367.059 156.787 372.767C150.697 361.35 143.799 350.383 136.147 339.948C139.765 334.743 151.039 326.986 153.672 324.936C165.409 315.711 176.945 307.752 181.266 292.639C184.682 280.702 183.577 265.448 168.685 263.157C148.588 260.042 137.775 287.675 136.389 303.773C135.404 315.048 135.122 330.945 135.042 338.421C129.254 330.523 123.526 323.328 118.321 316.796C112.815 309.903 107.931 303.753 104.112 298.226L105.479 297.603C104.96 297.8 104.404 297.876 103.851 297.824C103.773 297.739 103.706 297.645 103.65 297.543C106.404 292.619 120.029 284.661 123.024 282.651C135.404 274.311 147.502 267.196 152.908 252.505C157.169 240.829 157.169 225.555 142.498 222.178C122.622 217.596 109.88 244.285 107.328 260.363C105.318 272.864 103.751 291.152 103.309 297.101C102.665 296.156 102.062 295.212 101.5 294.307C94.4672 282.844 88.2291 270.912 82.8295 258.595L84.2765 258.353C83.7272 258.406 83.1731 258.344 82.6486 258.173L82.0658 256.846C84.7588 250.998 94.526 241.633 96.7568 239.201Z" fill="#07B7DE"/>
<path d="M339.712 566.645C395.931 566.645 441.505 551.943 441.505 533.806C441.505 515.67 395.931 500.968 339.712 500.968C283.494 500.968 237.92 515.67 237.92 533.806C237.92 551.943 283.494 566.645 339.712 566.645Z" fill="#6CDCF2"/>
<path opacity="0.5" d="M339.712 566.645C395.931 566.645 441.505 551.943 441.505 533.806C441.505 515.67 395.931 500.968 339.712 500.968C283.494 500.968 237.92 515.67 237.92 533.806C237.92 551.943 283.494 566.645 339.712 566.645Z" fill="#07B7DE"/>
<path d="M573.704 183.672H577.08C580.477 183.672 585.803 181.663 581.442 179.814C577.08 177.965 564.037 177.382 562.59 178.829C561.143 180.276 549.045 184.637 549.045 184.637V184.838C540.765 184.356 519.16 183.069 508.569 182.145C499.728 181.504 490.845 181.699 482.041 182.728L471.67 177.543L458.949 200.614C458.949 200.614 465.883 208.111 471.65 208.111C477.418 208.111 493.556 206.382 509.694 204.634C525.833 202.885 554.109 194.846 554.109 194.846V194.666C560.445 195.833 566.862 196.505 573.302 196.675C586.365 197.158 586.365 195.228 587.37 193.279C587.906 192.325 588.241 191.272 588.355 190.184L573.704 183.672Z" fill="white" stroke="#263238" stroke-linecap="round" stroke-linejoin="round"/>
<path d="M573.704 183.673C573.704 183.673 565.122 187.933 563.374 188.938C561.443 189.641 559.4 189.989 557.345 189.963" fill="white"/>
<path d="M573.704 183.673C573.704 183.673 565.122 187.933 563.374 188.938C561.443 189.641 559.4 189.989 557.345 189.963" stroke="#263238" stroke-linecap="round" stroke-linejoin="round"/>
<path d="M286.314 500.365L276.828 521.708C272.085 532.38 272.085 550.748 282.857 549.563C293.629 548.377 293.529 518.734 295.297 511.619C297.066 504.505 297.669 502.153 297.669 502.153L286.314 500.365Z" fill="#FFD666" stroke="#263238" stroke-linecap="round" stroke-linejoin="round"/>
<path d="M292.424 532.239C284.385 546.307 281.692 546.106 277.994 540.278C276.105 537.344 275.542 531.174 275.441 525.567C272.226 536.278 273.291 550.628 282.757 549.583C288.123 548.96 290.876 540.901 292.424 532.239Z" fill="white" stroke="#263238" stroke-linecap="round" stroke-linejoin="round"/>
<path d="M383.504 500.365C383.504 500.365 374.621 512.805 375.807 518.734C376.992 524.662 382.921 522.894 389.433 527.637C395.944 532.38 395.944 534.751 403.059 539.474C410.173 544.197 420.845 544.217 417.287 535.334C413.73 526.451 400.667 513.468 400.104 511.036C399.438 508.823 398.646 506.649 397.733 504.525L383.504 500.365Z" fill="#FFD666" stroke="#263238" stroke-linecap="round" stroke-linejoin="round"/>
<path d="M389.473 521.969C385.366 518.834 381.003 516.051 376.43 513.649C375.815 515.269 375.602 517.013 375.807 518.733C376.992 524.662 382.921 522.893 389.433 527.636C395.944 532.379 395.944 534.751 403.059 539.474C410.173 544.196 420.845 544.217 417.287 535.334C406.294 542.609 400.004 529.726 389.473 521.969Z" fill="white" stroke="#263238" stroke-linecap="round" stroke-linejoin="round"/>
<path d="M344.978 299.453C344.978 299.453 340.838 329.599 334.306 351.605C327.774 373.612 322.469 393.106 320.097 399.617C317.726 406.129 302.914 428.075 300 444.655C297.086 461.235 287.56 497.993 286.374 500.365C285.188 502.736 292.403 511.036 298.232 511.036C304.06 511.036 345.641 433.984 351.57 423.915C357.498 413.846 382.137 351.304 386.88 344.772C389.412 341.067 393.048 338.254 397.271 336.733C397.271 336.733 404.305 382.957 404.305 396.08C404.305 409.204 397.793 408.52 393.05 423.935C388.307 439.35 383.564 498.616 383.564 500.304C383.564 501.993 386.539 505.65 390.679 507.419C393.505 508.507 396.549 508.913 399.562 508.605C399.562 508.605 417.348 454.684 424.462 438.083C431.577 421.483 440.54 400.16 441.062 387.7C441.585 375.239 446.971 323.107 433.948 290.51C433.888 290.57 386.478 311.31 344.978 299.453Z" fill="#263238" stroke="#263238" stroke-linecap="round" stroke-linejoin="round"/>
<path d="M378.178 134.856C378.178 134.856 358.081 146.915 345.882 159.094C334.226 170.75 335.492 189.641 337.24 202.906C338.989 216.17 345.279 269.809 345.279 273.246C345.279 276.682 344.134 303.814 344.134 303.814C355.767 310.303 368.877 313.681 382.198 313.621C404.687 313.621 436.46 295.735 436.46 295.735C436.46 295.735 428.964 253.068 428.964 240.95C428.964 228.831 434.149 174.066 434.149 174.066C434.149 174.066 442.811 190.787 446.851 194.826L458.386 206.362L479.046 178.106C479.046 178.106 453.663 152.743 441.545 142.353C429.426 131.962 425.748 126.898 407.983 127.702C397.672 128.09 387.542 130.522 378.178 134.856Z" fill="#FFD666" stroke="#263238" stroke-linecap="round" stroke-linejoin="round"/>
<path d="M433.827 153.326L434.109 174.086L440.801 158.752" stroke="#263238" stroke-linecap="round" stroke-linejoin="round"/>
<path d="M425.286 211.467C425.286 211.467 404.345 242.477 394.276 249.471" stroke="#263238" stroke-linecap="round" stroke-linejoin="round"/>
<path d="M396.447 181.864C408.746 184.939 411.821 171.815 411.821 155.738C411.651 146.297 410.219 136.923 407.56 127.863C397.396 128.292 387.414 130.709 378.178 134.977C378.178 134.977 376.51 135.982 373.877 137.67C372.811 141.326 372.903 145.222 374.139 148.824C377.977 161.003 384.127 178.689 396.447 181.864Z" fill="white" stroke="#263238" stroke-linecap="round" stroke-linejoin="round"/>
<path d="M361.598 233.855C368.846 240.835 375.563 248.346 381.695 256.324C389.955 267.558 406.515 280.119 406.515 280.119C412.37 278.837 418.306 277.957 424.281 277.486C429.607 277.486 449.121 294.026 449.121 294.026C449.121 294.026 447.916 298.649 443.776 298.628C439.636 298.608 422.473 295.976 420.704 295.976C418.935 295.976 410.655 298.588 404.124 295.976C397.592 293.363 390.538 286.068 390.538 286.068C390.538 286.068 358.583 267.538 348.535 258.293C342.687 253.083 338.226 246.502 335.552 239.141L334.969 230.559L361.598 233.855Z" fill="white" stroke="#263238" stroke-linecap="round" stroke-linejoin="round"/>
<path d="M345.882 159.094C342.929 160.602 340.329 162.718 338.251 165.301C336.173 167.885 334.664 170.879 333.824 174.086C330.95 185.039 333.261 198.866 333.261 205.217C333.261 211.568 335.552 235.785 335.552 235.785C340.453 238.616 345.973 240.203 351.63 240.407C357.551 240.098 363.3 238.308 368.351 235.202L368.934 187.913" fill="#FFD666"/>
<path d="M345.882 159.094C342.929 160.602 340.329 162.718 338.251 165.301C336.173 167.885 334.664 170.879 333.824 174.086C330.95 185.039 333.261 198.866 333.261 205.217C333.261 211.568 335.552 235.785 335.552 235.785C340.453 238.616 345.973 240.203 351.63 240.407C357.551 240.098 363.3 238.308 368.351 235.202L368.934 187.913" stroke="#263238" stroke-linecap="round" stroke-linejoin="round"/>
<path d="M378.339 139.077C380.349 147.376 383.038 155.496 386.378 163.354C391.623 175.252 400.185 176.679 403.038 170.007C405.892 163.334 406.374 150.03 406.374 150.03C406.374 150.03 398.336 154.311 391.141 149.065C383.946 143.82 378.339 139.077 378.339 139.077Z" fill="white" stroke="#263238" stroke-linecap="round" stroke-linejoin="round"/>
<path d="M417.087 110.418C417.087 110.418 424.241 106.6 425.668 101.375C427.095 96.1493 424.241 93.7577 424.241 93.7577C424.241 93.7577 433.285 88.9947 429.949 80.8955C426.613 72.7963 404.687 59.9542 386.599 61.3811C368.512 62.808 369.939 75.6702 369.939 75.6702C369.939 75.6702 360.895 78.0417 360.895 85.7189C360.895 93.396 362.322 105.233 367.567 112.368C372.812 119.502 377.616 110.941 380.409 106.66C383.203 102.379 383.745 97.6164 390.88 101.435C398.014 105.253 413.73 105.716 413.73 105.716L417.087 110.418Z" fill="#263238" stroke="#263238" stroke-linecap="round" stroke-linejoin="round"/>
<path d="M424.06 83.3874C423.16 82.1288 422.083 81.0053 420.865 80.0513" stroke="white" stroke-width="0.75" stroke-linecap="round" stroke-linejoin="round"/>
<path d="M375.947 81.1366C375.947 81.1366 399.16 98.8221 410.273 97.7972C418.071 97.0938 425.628 93.1547 425.588 87.7486" stroke="white" stroke-width="0.75" stroke-linecap="round" stroke-linejoin="round"/>
<path d="M372.913 83.6688C372.913 83.6688 381.494 89.698 377.957 95.285C374.42 100.872 366.843 100.329 366.843 100.329" stroke="white" stroke-width="0.75" stroke-linecap="round" stroke-linejoin="round"/>
<path d="M372.35 105.655C372.35 105.655 371.888 112.79 370.461 111.845C369.034 110.901 365.698 104.228 364.733 99.9477C363.769 95.667 359.508 101.837 360.453 111.845C360.733 114.675 361.895 117.345 363.773 119.479C365.652 121.613 368.152 123.105 370.923 123.743C370.923 123.743 379.967 146.111 389.011 152.763C398.055 159.415 404.727 154.672 409.007 147.056C413.288 139.439 418.534 99.9477 418.534 99.9477C411.138 101.833 403.351 101.498 396.145 98.983C389.537 96.3955 383.42 92.698 378.058 88.0502C378.058 88.0502 384.71 96.6116 379.947 100.41C377.586 102.395 375.043 104.151 372.35 105.655Z" fill="white" stroke="#263238" stroke-linecap="round" stroke-linejoin="round"/>
<path d="M402.335 118.035C402.335 118.035 406.154 129.933 403.762 131.36C401.37 132.787 397.11 131.36 397.11 131.36" stroke="#263238" stroke-linecap="round" stroke-linejoin="round"/>
<path d="M389.975 136.102C389.975 136.102 393.291 142.292 402.817 139.438" stroke="#263238" stroke-linecap="round" stroke-linejoin="round"/>
<path d="M393.291 117.794C393.291 119.804 392.548 121.351 391.623 121.351C390.699 121.351 389.975 119.763 389.975 117.794C389.975 115.824 390.719 114.217 391.623 114.217C392.528 114.217 393.291 115.824 393.291 117.794Z" fill="#263238"/>
<path d="M409.248 117.07C409.248 119.08 408.505 120.648 407.58 120.648C406.656 120.648 405.912 119.04 405.912 117.07C405.912 115.101 406.656 113.513 407.58 113.513C408.505 113.513 409.248 115.101 409.248 117.07Z" fill="#263238"/>
<path d="M384.73 109.936C385.821 108.664 387.246 107.723 388.845 107.219C390.443 106.714 392.15 106.667 393.774 107.082" stroke="#263238" stroke-linecap="round" stroke-linejoin="round"/>
<path d="M404.687 108.027C404.687 108.027 411.339 105.655 412.303 112.79" stroke="#263238" stroke-linecap="round" stroke-linejoin="round"/>
<path d="M190.289 656.942C246.508 656.942 292.082 642.239 292.082 624.103C292.082 605.967 246.508 591.264 190.289 591.264C134.071 591.264 88.4968 605.967 88.4968 624.103C88.4968 642.239 134.071 656.942 190.289 656.942Z" fill="#6CDCF2"/>
<path opacity="0.5" d="M190.289 656.942C246.508 656.942 292.082 642.239 292.082 624.103C292.082 605.967 246.508 591.264 190.289 591.264C134.071 591.264 88.4968 605.967 88.4968 624.103C88.4968 642.239 134.071 656.942 190.289 656.942Z" fill="#07B7DE"/>
<path d="M281.149 130.897C280.991 133.715 280.581 136.513 279.923 139.258C278.552 142.593 276.891 145.8 274.959 148.844L291.037 168.66C291.037 168.66 295.679 159.375 298.151 158.129C300.541 157.298 303.056 156.883 305.587 156.903C303.145 149.61 299.817 142.645 295.679 136.163C289.208 126.255 283.641 126.255 281.149 130.897Z" fill="white" stroke="#263238" stroke-linecap="round" stroke-linejoin="round"/>
<path d="M323.875 94.6822C323.875 94.6822 329.121 94.6822 334.085 85.7189C339.049 76.7555 330.668 67.149 310.873 64.3555C291.077 61.562 266.659 67.7519 259.484 85.3973C252.309 103.043 264.749 125.592 272.487 131.199C280.224 136.806 285.791 133.691 288.565 131.822C291.338 129.953 291.037 125.33 291.961 125.009C292.886 124.687 295.981 129.651 300.945 125.953C305.909 122.256 301.568 115.121 306.21 111.705C310.852 108.288 314.872 107.987 314.57 102.42C314.566 100.017 314.249 97.6255 313.626 95.3052L323.875 94.6822Z" fill="#263238" stroke="#263238" stroke-linecap="round" stroke-linejoin="round"/>
<path d="M265.332 105.695C264.315 107.098 263.628 108.713 263.323 110.418" stroke="white" stroke-width="0.75" stroke-linecap="round" stroke-linejoin="round"/>
<path d="M320.901 75.5898C320.901 75.5898 328.478 74.5849 322.911 81.6189C317.344 88.653 308.843 89.1755 295.137 89.1755C286.032 89.1755 275.321 95.0439 269.01 101.354" stroke="white" stroke-width="0.75" stroke-linecap="round" stroke-linejoin="round"/>
<path d="M298.694 99.8268C298.694 99.8268 274.457 102.861 266.88 114.458" stroke="white" stroke-width="0.75" stroke-linecap="round" stroke-linejoin="round"/>
<path d="M274.055 141.107C274.055 141.107 280.566 147.297 288.906 155.959C297.247 164.621 307.798 176.056 307.798 176.056C307.798 176.056 295.096 179.151 294.172 179.473C293.247 179.794 265.091 148.201 265.091 148.201L274.055 141.107Z" fill="white" stroke="#263238" stroke-linecap="round" stroke-linejoin="round"/>
<path d="M134.922 549.643C134.922 549.643 117.919 554.506 115.025 558.687C112.131 562.867 118.241 579.869 117.598 590.159C116.955 600.449 115.588 604.227 118.562 607.161C121.537 610.095 133.334 616.808 140.087 614.878C146.839 612.949 139.443 605.252 139.122 601.072C138.8 596.891 145.151 568.916 145.674 567.328C146.196 565.741 138.74 552.758 134.922 549.643Z" fill="#28E7B1" stroke="#263238" stroke-linecap="round" stroke-linejoin="round"/>
<path d="M133.012 604.247C132.047 601.675 137.514 575.026 133.334 563.771C131.793 559.239 128.589 555.461 124.37 553.2C120.351 554.828 116.331 556.798 115.025 558.647C112.151 562.807 118.241 579.829 117.598 590.119C116.954 600.409 115.588 604.187 118.562 607.121C121.537 610.055 133.334 616.768 140.086 614.838C140.834 614.655 141.525 614.289 142.096 613.773C139.524 611.502 133.756 606.237 133.012 604.247Z" fill="white" stroke="#263238" stroke-linecap="round" stroke-linejoin="round"/>
<path d="M140.448 614.698C136.429 613.15 131.022 609.573 129.797 606.177C128.209 601.675 132.047 580.151 128.852 566.665C126.842 558.627 122.823 556.074 119.647 555.311C117.885 556.078 116.309 557.216 115.025 558.647C112.151 562.807 118.241 579.829 117.598 590.119C116.954 600.409 115.588 604.187 118.562 607.121C121.537 610.055 133.334 616.768 140.086 614.838L140.448 614.698Z" fill="white" stroke="#263238" stroke-linecap="round" stroke-linejoin="round"/>
<path d="M245.536 349.635C245.536 349.635 243.667 403.134 239.829 423.895C235.99 444.655 224.113 464.25 220.274 471.163C216.436 478.077 162.595 544.98 157.209 552.678C151.823 560.375 145.673 567.288 145.673 567.288L134.921 549.603C134.921 549.603 156.446 508.082 163.359 489.613C170.272 471.143 194.128 425.804 194.128 425.804C194.128 425.804 193.706 382.977 195.253 377.571C196.801 372.164 190.631 353.735 194.49 339.125C198.348 324.514 213.763 317.621 213.763 317.621" fill="#263238"/>
<path d="M245.536 349.635C245.536 349.635 243.667 403.134 239.829 423.895C235.99 444.655 224.113 464.25 220.274 471.163C216.436 478.077 162.595 544.98 157.209 552.678C151.823 560.375 145.673 567.288 145.673 567.288L134.921 549.603C134.921 549.603 156.446 508.082 163.359 489.613C170.272 471.143 194.128 425.804 194.128 425.804C194.128 425.804 193.706 382.977 195.253 377.571C196.801 372.164 190.631 353.735 194.49 339.125C198.348 324.514 213.763 317.621 213.763 317.621" stroke="#263238" stroke-linecap="round" stroke-linejoin="round"/>
<path d="M267.643 600.569C267.643 600.569 269.291 601.655 285.731 602.76C302.17 603.865 307.657 598.921 307.114 603.845C306.572 608.769 295.599 618.094 286.836 621.933C278.074 625.771 262.177 626.877 255.585 630.152C248.993 633.428 242.442 633.448 242.442 625.771C242.442 618.094 249.013 603.303 249.013 603.303C249.013 603.303 263.262 606.599 267.643 600.569Z" fill="#28E7B1" stroke="#263238" stroke-linecap="round" stroke-linejoin="round"/>
<path d="M297.789 610.437C288.484 617.009 274.235 619.199 260.529 624.123C254.709 626.414 248.23 626.371 242.442 624.003C242.442 624.626 242.442 625.229 242.442 625.771C242.442 633.448 249.013 633.448 255.585 630.152C262.157 626.856 278.074 625.771 286.836 621.993C295.599 618.215 306.572 608.849 307.114 603.905C307.255 602.579 306.954 601.896 306.15 601.775C303.997 605.214 301.149 608.164 297.789 610.437Z" fill="white" stroke="#263238" stroke-linecap="round" stroke-linejoin="round"/>
<path d="M282.093 321.459C282.093 321.459 287.7 402.29 293.086 431.512C298.473 460.733 279.018 518.553 275.964 536.238C272.909 553.924 269.291 602.881 269.291 602.881C269.291 602.881 266.216 610.578 261.594 612.105C256.972 613.633 248.531 614.416 248.531 609.03C248.531 603.644 246.742 568.534 246.742 559.31C246.742 550.085 248.27 469.877 248.27 454.483C248.27 439.088 229.82 362.98 229.037 346.842C228.253 330.704 229.037 319.168 237.498 316.093C245.958 313.018 282.093 321.459 282.093 321.459Z" fill="#263238" stroke="#263238" stroke-linecap="round" stroke-linejoin="round"/>
<path d="M293.288 239.965C293.288 239.965 285.59 282.631 285.249 295.313C284.907 307.994 287.942 324.936 280.646 328.393C274.383 331.295 267.281 331.838 260.65 329.92C256.409 328.393 253.334 329.538 253.736 319.168C254.138 308.798 286.756 234.579 293.288 239.965Z" fill="white" stroke="#263238" stroke-linecap="round" stroke-linejoin="round"/>
<path d="M243.909 161.144C243.909 161.144 198.931 194.023 187.395 202.082C175.86 210.141 174.131 221.697 175.86 228.61C177.588 235.524 201.222 291.474 201.222 291.474L214.486 269.568C214.486 269.568 204.679 230.921 205.262 225.736C205.845 220.551 222.566 211.889 222.566 211.889L243.909 161.144Z" fill="#28E7B1" stroke="#263238" stroke-linecap="round" stroke-linejoin="round"/>
<path d="M407.299 283.094L414.574 283.696C414.574 283.696 426.532 273.226 430.652 269.729C434.772 266.232 454.005 277.306 454.005 277.306C454.005 277.306 457.241 278.029 453.724 279.597C450.207 281.164 440.419 282.249 439.957 283.194C439.495 284.139 427.316 296.599 423.055 298.729C418.795 300.859 400.245 294.891 400.245 294.891L407.299 283.094Z" fill="white" stroke="#263238" stroke-linecap="round" stroke-linejoin="round"/>
<path d="M263.202 148.221C263.202 148.221 283.018 165.565 295.076 176.357C307.135 187.15 352.534 241.914 375.646 259.158C398.758 276.401 407.299 283.053 407.299 283.053L404.003 294.489C404.003 294.489 400.165 297.765 378.761 289.163C357.357 280.561 336.838 267.719 321.625 257.108C306.411 246.497 295.498 237.332 295.498 237.332C295.498 237.332 271.562 292.157 266.016 314.124C260.469 336.09 254.56 363.643 252.088 369.833C249.616 376.023 244.974 380.666 239.085 380.666C233.197 380.666 224.234 376.345 207.513 364.588C190.792 352.831 180.904 345.415 179.377 342.923C177.849 340.431 205.061 270.814 210.929 240.166C216.798 209.518 221.802 167.414 263.202 148.221Z" fill="#28E7B1" stroke="#263238" stroke-linecap="round" stroke-linejoin="round"/>
<path d="M271.763 226.982L295.398 237.372L253.937 241.713" stroke="#263238" stroke-linecap="round" stroke-linejoin="round"/>
<path d="M291.157 176.578C287.011 175.581 282.674 175.701 278.59 176.926C274.505 178.151 270.818 180.437 267.905 183.552" stroke="#263238" stroke-linecap="round" stroke-linejoin="round"/>
<path d="M272.909 292.64C272.909 292.64 257.535 329.538 247.144 343.004C236.754 356.469 230.243 364.528 230.243 364.528C230.243 364.528 251.385 369.532 247.546 376.063C247.546 376.063 250.621 373.752 256.771 352.992C262.921 332.231 272.909 292.64 272.909 292.64Z" fill="#28E7B1" stroke="#263238" stroke-linecap="round" stroke-linejoin="round"/>
<path d="M295.398 120.688C295.398 120.688 294.152 110.479 287.66 108.63C281.169 106.781 279.923 124.105 283.018 129.993C283.958 131.72 285.285 133.205 286.897 134.331C288.508 135.458 290.358 136.195 292.303 136.484C292.303 136.484 299.417 153.507 305.306 158.149C311.194 162.792 313.345 158.471 316.741 155.376C320.138 152.281 323.876 131.842 323.876 131.842C323.876 131.842 332.537 129.993 331.914 126.577C331.291 123.16 325.102 118.236 326.026 115.141C326.95 112.046 329.121 109.253 329.121 106.781C328.403 101.877 327.052 97.0876 325.102 92.5319C323.876 90.3815 309.948 90.3815 305.306 92.8534C300.663 95.3254 309.325 97.7973 308.079 101.817C306.833 105.836 299.417 107.404 298.794 109.856C298.171 112.308 301.588 125.009 295.398 120.688Z" fill="white" stroke="#263238" stroke-linecap="round" stroke-linejoin="round"/>
<path d="M327.091 108.73C327.091 108.73 325.282 103.907 320.479 109.313L327.091 108.73Z" fill="white"/>
<path d="M327.091 108.73C327.091 108.73 325.282 103.907 320.479 109.313" stroke="#263238" stroke-linecap="round" stroke-linejoin="round"/>
<path d="M310.792 135.057C311.461 136.274 312.444 137.289 313.639 137.996C314.834 138.703 316.197 139.076 317.585 139.077" fill="white"/>
<path d="M310.792 135.057C311.461 136.274 312.444 137.289 313.639 137.996C314.834 138.703 316.197 139.076 317.585 139.077" stroke="#263238" stroke-linecap="round" stroke-linejoin="round"/>
<path d="M321.544 120.206C322.466 120.206 323.212 118.577 323.212 116.568C323.212 114.559 322.466 112.93 321.544 112.93C320.623 112.93 319.876 114.559 319.876 116.568C319.876 118.577 320.623 120.206 321.544 120.206Z" fill="#263238"/>
<path d="M240.09 419.293L220.234 383.037L205.543 377.852" stroke="white" stroke-width="0.75" stroke-linecap="round" stroke-linejoin="round"/>
<path d="M566.288 606.056C622.507 606.056 668.081 591.353 668.081 573.217C668.081 555.081 622.507 540.378 566.288 540.378C510.07 540.378 464.496 555.081 464.496 573.217C464.496 591.353 510.07 606.056 566.288 606.056Z" fill="#6CDCF2"/>
<path opacity="0.5" d="M566.288 606.056C622.507 606.056 668.081 591.353 668.081 573.217C668.081 555.081 622.507 540.378 566.288 540.378C510.07 540.378 464.496 555.081 464.496 573.217C464.496 591.353 510.07 606.056 566.288 606.056Z" fill="#07B7DE"/>
<path d="M519.241 82.7646C503.404 88.0703 488.673 98.5007 483.528 112.187C476.755 130.094 510.338 135.64 519.241 149.106C528.144 162.571 512.528 172.619 513.654 192.757C514.779 212.894 552.823 201.72 570.73 221.857C588.636 241.995 571.855 248.727 594.223 266.634C616.592 284.541 631.162 286.731 644.607 265.509C658.052 244.286 668.101 218.501 647.963 197.178C627.826 175.855 591.993 170.328 594.223 154.652C596.454 138.977 613.255 117.714 593.118 99.8071C580.837 89.3438 565.981 82.3563 550.09 79.5692C541.066 77.9413 529.872 79.1873 519.241 82.7646Z" fill="#263238" stroke="#263238" stroke-linecap="round" stroke-linejoin="round"/>
<path d="M515.824 108.71C515.824 108.71 501.756 107.625 502.259 97.8575C502.761 88.0903 535.881 84.312 548.362 84.312" stroke="white" stroke-width="0.75" stroke-linecap="round" stroke-linejoin="round"/>
<path d="M512.568 102.199C524.586 102.184 536.181 106.631 545.106 114.679C560.279 128.225 581.421 133.108 595.53 128.747" stroke="white" stroke-width="0.75" stroke-linecap="round" stroke-linejoin="round"/>
<path d="M510.94 114.679C510.94 114.679 486 116.307 490.843 124.426C495.687 132.545 507.182 132.023 507.182 132.023" stroke="white" stroke-width="0.75" stroke-linecap="round" stroke-linejoin="round"/>
<path d="M533.309 179.251C533.309 179.251 519.502 186.265 517.11 190.385C514.719 194.505 495.868 238.619 495.868 238.619C495.868 238.619 480.815 249.23 465.4 262.595C460.196 266.723 454.276 269.857 447.936 271.839C447.936 271.839 432.863 275.256 429.105 276.643C425.347 278.029 419.518 289.987 418.493 294.73C417.468 299.473 421.91 301.563 425.688 301.905C429.466 302.246 440.399 289.244 441.424 288.219C441.867 287.901 442.37 287.676 442.902 287.559C443.434 287.442 443.984 287.433 444.519 287.535C444.519 287.535 435.958 296.78 435.958 297.805C435.958 298.83 436.983 301.563 439.716 299.513C442.449 297.463 444.861 294.027 449.644 289.585C454.427 285.144 461.3 278.632 463.712 276.241C466.124 273.849 487.346 264.182 496.25 258.776C501.949 255.539 507.137 251.476 511.644 246.718C513.654 244.326 531.842 212.131 531.842 212.131L533.309 179.251Z" fill="white" stroke="#263238" stroke-linecap="round" stroke-linejoin="round"/>
<path d="M419.337 296.72C419.337 296.72 425.869 284.5 428.14 282.229" stroke="#263238" stroke-linecap="round" stroke-linejoin="round"/>
<path d="M421.327 300.438C421.327 300.438 430.692 284.541 432.4 283.697" stroke="#263238" stroke-linecap="round" stroke-linejoin="round"/>
<path d="M424.161 301.543C424.161 301.543 434.39 285.345 436.661 284.219" stroke="#263238" stroke-linecap="round" stroke-linejoin="round"/>
<path d="M500.47 227.907C505.61 231.888 510.978 235.566 516.548 238.92C522.577 228.671 531.802 212.291 531.802 212.291L533.309 179.251C533.309 179.251 519.502 186.265 517.11 190.385C515.462 193.179 506.198 214.562 500.47 227.907Z" fill="#07B7DE" stroke="#263238" stroke-linecap="round" stroke-linejoin="round"/>
<path d="M579.07 425.04C579.07 425.04 600.976 501.068 607.829 518.171C614.682 535.274 615.366 562.686 614.682 570.906C613.999 579.126 607.488 592.49 605.438 597.615C603.388 602.74 611.587 602.76 616.049 599.625C620.511 596.49 633.513 591.747 636.588 581.537C639.663 571.328 636.588 558.928 637.272 554.125C637.955 549.322 643.441 549.342 637.955 541.122C632.468 532.902 624.269 525.366 623.244 521.025C622.219 516.684 617.074 496.707 619.807 477.193C622.54 457.678 615.366 436.094 613.657 429.944C613.104 427.313 612.177 424.775 610.904 422.408C610.904 422.408 588.656 427.05 579.07 425.04Z" fill="white" stroke="#263238" stroke-linecap="round" stroke-linejoin="round"/>
<path d="M637.955 541.021C636.186 538.368 634.136 535.796 632.147 533.364V541.403C632.147 548.598 631.463 568.112 625.977 574.282C621.957 578.804 616.29 577.598 613.537 576.654C611.266 583.771 608.582 590.75 605.498 597.555C603.488 602.7 611.648 602.7 616.109 599.564C620.571 596.429 633.574 591.686 636.649 581.477C639.723 571.267 636.649 558.868 637.332 554.064C638.015 549.261 643.441 549.241 637.955 541.021Z" fill="#07B7DE" stroke="#263238" stroke-linecap="round" stroke-linejoin="round"/>
<path d="M531.801 416.037C531.801 416.037 527.018 474.319 523.26 496.164C519.502 518.01 515.04 539.313 511.604 544.096C508.167 548.879 491.748 561.902 488.673 564.314C485.598 566.726 488.673 569.78 490.683 570.805C492.692 571.83 505.072 573.217 513.975 565.681C522.878 558.144 524.245 553.622 527.661 552.316C531.078 551.01 533.831 550.608 534.856 542.388C535.881 534.168 530.053 530.068 533.148 521.507C536.568 511.68 540.595 502.075 545.206 492.748C552.059 478.358 558.913 463.285 558.913 452.332C558.913 441.379 557.425 429.743 557.425 427.05C557.668 424.052 558.132 421.076 558.812 418.147L531.741 414.127L531.801 416.037Z" fill="white" stroke="#263238" stroke-linecap="round" stroke-linejoin="round"/>
<path d="M533.992 534.409C533.205 535.44 532.531 536.551 531.982 537.725C529.651 542.83 518.055 556.737 512.026 556.275C508.553 555.85 505.165 554.902 501.977 553.462C496.47 558.204 490.441 562.947 488.713 564.314C485.618 566.706 488.713 569.78 490.723 570.805C492.732 571.83 505.112 573.217 514.015 565.681C522.918 558.144 524.285 553.622 527.702 552.316C531.118 551.01 533.871 550.608 534.896 542.388C535.175 539.694 534.867 536.972 533.992 534.409Z" fill="#07B7DE" stroke="#263238" stroke-linecap="round" stroke-linejoin="round"/>
<path d="M547.899 172.579C547.899 172.579 538.594 176.94 534.494 178.608C530.395 180.276 528.003 190.385 529.711 196.555C531.42 202.725 529.068 224.932 531.46 233.494C533.851 242.055 549.266 251.3 552.703 255.058C555.009 257.896 556.749 261.15 557.827 264.644L536.946 300.94C529.068 314.646 495.506 390.654 495.506 390.654C495.506 390.654 505.112 415.655 556.119 426.266C607.126 436.877 660.906 419.071 668.442 414.208C674.188 410.239 679.569 405.767 684.52 400.843C684.52 400.843 662.594 347.083 646.838 317.299C631.082 287.515 607.809 259.017 607.809 259.017L606.443 235.041C606.443 235.041 602.423 200.454 599.248 193.601C596.072 186.747 580.075 178.206 571.514 176.136C562.952 174.066 554.752 172.237 547.899 172.579Z" fill="#263238" stroke="#263238" stroke-linecap="round" stroke-linejoin="round"/>
<path d="M540.544 223.304C540.544 223.304 556.079 228.49 568.177 227.625" stroke="white" stroke-width="0.75" stroke-linecap="round" stroke-linejoin="round"/>
<path d="M562.992 268.282C562.992 268.282 541.348 321.72 536.223 337.276" stroke="white" stroke-width="0.75" stroke-linecap="round" stroke-linejoin="round"/>
<path d="M569.886 272.523L564.721 301" stroke="white" stroke-width="0.75" stroke-linecap="round" stroke-linejoin="round"/>
<path d="M597.62 275.115C597.62 275.115 605.397 326.041 607.126 345.898" stroke="white" stroke-width="0.75" stroke-linecap="round" stroke-linejoin="round"/>
<path d="M602.704 276.823L622.561 319.992" stroke="white" stroke-width="0.75" stroke-linecap="round" stroke-linejoin="round"/>
<path d="M571.493 176.337C562.932 174.328 554.712 172.318 547.859 172.579C547.859 172.579 542.754 174.971 537.63 177.302C536.675 180.459 536.003 183.693 535.62 186.969C534.595 194.827 538.353 207.166 538.353 207.166L570.207 211.608C570.207 211.608 571.232 202.363 573.282 192.435C574.175 187.59 575.997 182.962 578.648 178.809C576.335 177.791 573.942 176.965 571.493 176.337Z" fill="#07B7DE" stroke="#263238" stroke-linecap="round" stroke-linejoin="round"/>
<path d="M597.901 241.412C599.322 242.024 600.868 242.29 602.413 242.189C603.957 242.088 605.455 241.622 606.784 240.829L606.462 235.242C606.462 235.242 602.443 200.655 599.268 193.802C597.439 189.782 590.988 185.06 584.255 181.502C581.326 190.216 579.807 199.341 579.753 208.533C579.753 224.631 587.29 236.609 597.901 241.412Z" fill="#07B7DE" stroke="#263238" stroke-linecap="round" stroke-linejoin="round"/>
<path d="M543.799 171.815C541.433 179.247 540.048 186.956 539.68 194.746C539.68 205.036 542.091 203.649 545.508 201.941C548.655 199.915 551.531 197.497 554.069 194.746C554.069 194.746 562.289 206.061 564.339 204.795C566.389 203.529 569.825 183.211 568.117 174.649C566.409 166.088 560.581 163.354 555.436 163.354C550.291 163.354 546.191 166.751 543.799 171.815Z" fill="white" stroke="#263238" stroke-linecap="round" stroke-linejoin="round"/>
<path d="M538.655 170.529C538.655 170.529 544.824 180.116 545.849 184.215C546.874 188.315 551.678 196.274 554.069 194.827C556.461 193.38 559.556 178.749 559.556 172.238C559.556 165.726 554.069 152.381 554.069 152.381C554.069 152.381 540.705 170.871 538.655 170.529Z" fill="white" stroke="#263238" stroke-linecap="round" stroke-linejoin="round"/>
<path d="M509.554 132.163C509.554 132.163 507.544 125.672 504.409 131.822C501.274 137.972 510.237 145.186 510.237 145.186L509.554 132.163Z" fill="white" stroke="#263238" stroke-linecap="round" stroke-linejoin="round"/>
<path d="M563.655 128.747C562.02 129.022 560.483 129.714 559.194 130.757C557.184 132.947 555.436 134.776 555.436 134.776C548.962 128.447 543.138 121.486 538.052 113.996C533.228 106.359 525.993 105.957 517.773 106.962C514.085 109.148 511.293 112.574 509.895 116.628C507.504 125.873 509.554 145.388 510.237 149.829C510.92 154.271 527.36 175.513 536.605 174.147C545.849 172.78 555.777 150.512 555.777 150.512C555.777 150.512 569.484 145.388 570.85 140.243C572.217 135.098 568.459 128.064 563.655 128.747Z" fill="white" stroke="#263238" stroke-linecap="round" stroke-linejoin="round"/>
<path d="M524.285 135.64C524.285 135.64 525.993 136.665 524.285 139.057C522.577 141.448 518.457 144.543 520.165 145.91C521.499 146.819 523.027 147.404 524.627 147.618" stroke="#263238" stroke-linecap="round" stroke-linejoin="round"/>
<path d="M527.28 153.728C527.28 153.728 534.816 157.144 539.599 151.336" stroke="#263238" stroke-linecap="round" stroke-linejoin="round"/>
<path d="M534.695 134.997C534.695 137.268 533.851 139.017 532.806 139.017C531.761 139.017 530.917 137.188 530.917 134.997C530.917 132.807 531.761 130.877 532.806 130.877C533.851 130.877 534.695 132.726 534.695 134.997Z" fill="#263238"/>
<path d="M518.316 137.931C519.359 137.931 520.205 136.096 520.205 133.832C520.205 131.567 519.359 129.732 518.316 129.732C517.273 129.732 516.427 131.567 516.427 133.832C516.427 136.096 517.273 137.931 518.316 137.931Z" fill="#263238"/>
<path d="M531.118 125.592C531.118 125.592 535.58 121.13 540.704 127.602" stroke="#263238" stroke-linecap="round" stroke-linejoin="round"/>
<path d="M522.898 125.592C522.898 125.592 518.115 119.422 514.698 125.592" stroke="#263238" stroke-linecap="round" stroke-linejoin="round"/>
<path d="M585.923 183.874C585.923 183.874 595.168 182.849 599.268 188.336C603.368 193.822 629.896 233.655 629.896 233.655L612.19 248.748L589.34 224.289" fill="#07B7DE"/>
<path d="M585.923 183.874C585.923 183.874 595.168 182.849 599.268 188.336C603.368 193.822 629.896 233.655 629.896 233.655L612.19 248.748L589.34 224.289" stroke="#263238" stroke-linecap="round" stroke-linejoin="round"/>
<path d="M643.843 254.073C644.225 251.782 637.03 242.558 629.956 233.655C625.994 234.526 622.306 236.358 619.218 238.99C616.131 241.622 613.738 244.973 612.25 248.748C616.27 254.174 619.526 258.796 619.526 258.796C619.526 258.796 612.693 277.627 609.256 291.313C606.864 300.9 598.625 313.802 593.882 320.716C592.334 322.504 589.541 325.398 587.531 325.84C584.597 326.504 583.934 325.197 580.678 328.132C577.422 331.066 572.498 335.648 570.207 337.276C567.916 338.904 571.493 340.351 573.503 340.632C575.513 340.913 580.698 336.371 580.698 336.371H584.295L573.825 353.052C573.825 353.052 572.197 355.665 575.131 355.665C578.065 355.665 584.295 346.52 584.295 346.52H587.229C587.229 346.52 579.713 356.971 579.713 358.277C579.713 359.584 582.004 360.287 583.311 359.584C584.617 358.88 591.812 349.133 591.812 349.133L586.908 360.247C586.908 360.247 587.551 361.875 589.842 361.212C592.133 360.548 596.715 350.439 596.715 350.439C596.715 350.439 594.424 358.941 596.374 359.262C598.323 359.584 600.634 348.791 600.634 348.791L603.89 328.855L607.126 324.353C612.371 317.962 623.967 303.814 629.755 295.132C637.271 283.857 643.1 258.233 643.843 254.073Z" fill="white" stroke="#263238" stroke-linecap="round" stroke-linejoin="round"/>
<path d="M473.54 323.188L476.253 326.222" stroke="#263238" stroke-linecap="round" stroke-linejoin="round"/>
<path d="M459.291 307.15L470.324 319.55" stroke="#263238" stroke-linecap="round" stroke-linejoin="round"/>
<path d="M481.558 283.817L494.28 285.948" stroke="#263238" stroke-linecap="round" stroke-linejoin="round"/>
<path d="M442.328 247.783L450.809 231.886" stroke="#263238" stroke-linecap="round" stroke-linejoin="round"/>
<path d="M340.677 293.806L358.583 291.253" stroke="#263238" stroke-linecap="round" stroke-linejoin="round"/>
<path d="M328.92 295.494L333.442 294.83" stroke="#263238" stroke-linecap="round" stroke-linejoin="round"/>
<path d="M411.962 342.039L410.535 347.425" stroke="white" stroke-linecap="round" stroke-linejoin="round"/>
<path d="M419.016 315.631L413.811 335.106" stroke="white" stroke-linecap="round" stroke-linejoin="round"/>
<path d="M378.741 303.975L353.298 318.807" stroke="white" stroke-linecap="round" stroke-linejoin="round"/>
</svg>
